PathFileType  4	(X/Y/Z) C:\Users\antoi\Documents\MyRepositories\mobilecap\ResultsAnalysis
DataRate	CameraRate	NumFrames	NumMarkers	Units	OrigDataRate	OrigDataStartFrame	OrigNumFrames
100.0	100.0	5	51	mm	100.0	53	140
Frame#	Time	r_knee			r_shank_antsup			r_ankle			r_calc			r_5meta			r_toe			L_knee			L_shank_antsup			L_ankle			L_calc			L_5meta			L_toe			r_sh2			r_sh3			r_sh4			L_sh2			L_sh3			r_thigh1			r_thigh2			r_thigh3			r_thigh4			r_thigh5			L_thigh1			L_thigh2			L_thigh3			L_thigh4			r.ASIS			r.PSIS			L.ASIS			L.PSIS			C7			R_Shoulder			L_Shoulder			R_Sternum			L_Sternum			R_humerus			R_elbow_med			R_elbow_lat			R_forearm			R_wrist_radius			R_wrist_ulna			L_humerus			L_elbow_med			L_elbow_lat			L_forearm			L_wrist_radius			L_wrist_ulna			R_HJC			L_HJC			R_HJC_reg			L_HJC_reg			
		X1	Y1	Z1	X2	Y2	Z2	X3	Y3	Z3	X4	Y4	Z4	X5	Y5	Z5	X6	Y6	Z6	X7	Y7	Z7	X8	Y8	Z8	X9	Y9	Z9	X10	Y10	Z10	X11	Y11	Z11	X12	Y12	Z12	X13	Y13	Z13	X14	Y14	Z14	X15	Y15	Z15	X16	Y16	Z16	X17	Y17	Z17	X18	Y18	Z18	X19	Y19	Z19	X20	Y20	Z20	X21	Y21	Z21	X22	Y22	Z22	X23	Y23	Z23	X24	Y24	Z24	X25	Y25	Z25	X26	Y26	Z26	X27	Y27	Z27	X28	Y28	Z28	X29	Y29	Z29	X30	Y30	Z30	X31	Y31	Z31	X32	Y32	Z32	X33	Y33	Z33	X34	Y34	Z34	X35	Y35	Z35	X36	Y36	Z36	X37	Y37	Z37	X38	Y38	Z38	X39	Y39	Z39	X40	Y40	Z40	X41	Y41	Z41	X42	Y42	Z42	X43	Y43	Z43	X44	Y44	Z44	X45	Y45	Z45	X46	Y46	Z46	X47	Y47	Z47	X48	Y48	Z48	X49	Y49	Z49	X50	Y50	Z50	X51	Y51	Z51	

53	0.52000000	315.51671	524.27144	-40.01397	324.39078	420.67614	-62.04099	155.52520	127.48028	-129.81781	65.73138	85.18088	-178.42790	260.46198	44.70170	-91.17016	320.24342	69.36420	-157.40564	589.94497	538.22653	-352.33557	625.94109	461.30469	-379.30730	761.87012	146.83657	-341.07212	727.37203	61.80439	-282.90391	901.25485	132.68220	-381.64909	939.70824	191.15603	-325.41746	274.42687	319.15766	-52.95003	267.99842	450.30937	-20.82665	202.14119	354.47321	-27.35111	545.98909	425.01614	-361.52082	609.87222	319.69473	-362.57260	449.97086	831.77848	9.18269	435.02107	722.63838	-3.94256	372.47690	705.04230	16.04905	336.46886	842.44866	23.98522	323.38457	730.69447	1.92399	537.58972	835.25109	-335.06519	599.99130	709.03713	-331.01632	444.31753	785.39997	-365.83677	502.34104	662.39502	-366.35588	478.62521	1059.79379	-30.73766	299.93377	1057.87915	-107.16601	488.78677	1035.08194	-285.33385	299.55642	1044.29936	-217.24593	432.95781	1551.68054	-357.58392	537.91608	1543.30357	-195.86281	422.64546	1401.46832	-482.78326	533.20592	1448.65195	-312.02203	512.38584	1421.30277	-357.02708	540.85139	1427.45306	-67.62433	424.15108	1257.71043	18.48021	470.38769	1309.15321	74.94588	585.92324	1179.33468	101.26836	654.03046	1111.55005	88.00045	625.94711	1108.19841	125.47719	346.37168	1271.07833	-496.89625	241.67821	1115.50975	-335.95111	224.96354	1100.57022	-414.81874	223.94008	1024.74088	-424.63530	188.24787	854.16926	-377.82053	148.91835	869.68001	-375.94115	407.23431	938.04903	-43.63829	408.28330	923.29719	-250.06828	426.33167	973.98142	-56.30198	425.75762	953.29017	-223.98284	
54	0.53000000	326.98257	522.52701	-39.40187	333.71784	418.18713	-61.65407	157.54470	129.68978	-129.34054	66.65321	88.01259	-178.09468	260.50584	44.51063	-90.89983	320.84248	68.71921	-157.07323	605.97798	536.93400	-352.00975	640.71914	459.09196	-379.04240	772.20751	143.48312	-340.13730	737.32906	60.17645	-281.16307	910.77186	127.39887	-382.33802	950.72726	185.59821	-326.88822	281.54894	317.87537	-52.58757	278.31054	449.10549	-20.20758	209.97722	354.84522	-26.86736	560.50600	423.82031	-360.75720	622.93487	318.00741	-361.61293	462.24760	829.69464	9.29444	447.08884	720.56371	-3.43315	384.44764	703.27629	16.43833	348.77279	840.63417	23.75634	335.56848	729.05149	1.89072	552.72216	834.20580	-335.03949	615.68670	708.26774	-330.46966	459.73916	783.77926	-365.97418	518.62885	661.16968	-366.46436	491.97286	1057.57344	-31.22727	313.20164	1055.35154	-107.82352	502.20241	1031.98266	-286.27463	312.94079	1041.26864	-217.77560	447.23036	1547.34554	-361.82261	552.33552	1539.74208	-200.14786	435.83003	1396.14519	-485.90468	547.19591	1444.19168	-315.71619	525.88984	1416.54286	-360.53553	554.25580	1425.06714	-70.69779	436.44799	1256.98338	17.17964	482.82074	1309.00425	73.05950	598.27836	1179.36730	100.12067	666.35151	1111.59383	87.24410	638.36523	1108.50131	124.83762	357.98644	1266.59164	-498.30482	251.74447	1114.29034	-335.29098	234.37823	1098.75549	-413.88919	232.00066	1022.95434	-422.85914	194.59126	853.27442	-374.42344	155.22261	869.22605	-371.96710	420.68394	935.74454	-43.90831	421.70024	920.27445	-250.28785	439.56958	971.66859	-56.54548	439.17280	950.15456	-224.47878	
55	0.54000000	338.87966	520.76374	-38.80064	343.08000	415.52198	-61.38093	159.64420	132.16192	-128.74223	67.83260	91.41097	-177.67709	260.65120	44.32002	-90.60826	321.50457	68.01579	-156.67679	622.05092	535.85287	-351.75036	655.50024	456.97825	-378.68522	780.82765	139.76125	-339.17955	744.52007	59.19731	-279.73040	918.36802	120.44510	-382.75890	960.28819	177.81762	-327.93491	289.00975	316.68516	-52.22226	289.07034	447.91054	-19.61011	218.23578	355.33164	-26.30961	574.73610	423.20348	-360.06606	635.10969	316.56366	-360.67022	474.73575	827.67888	9.23049	459.42298	718.54450	-3.07657	396.71978	701.55059	16.71371	361.29748	838.85331	23.34474	348.04772	727.42854	1.74326	567.99466	833.49997	-335.21799	631.65083	707.90333	-330.23592	475.27538	782.40830	-366.15667	535.10638	660.21739	-366.52738	505.50111	1055.40762	-31.90744	326.67595	1053.01013	-108.55006	515.81278	1029.18215	-287.34725	326.54443	1038.52218	-218.37553	461.54369	1543.25036	-366.06793	566.84943	1536.35289	-204.39563	449.14643	1391.05165	-489.02188	561.26931	1439.93126	-319.43436	539.69446	1411.99422	-364.07680	567.61877	1422.78752	-73.79318	448.49376	1256.40092	15.53914	495.01388	1308.88244	70.92847	610.11519	1179.22298	98.88988	678.07821	1111.37672	86.54828	650.11614	1108.54550	124.17814	369.92629	1262.30017	-499.76966	262.35066	1113.07594	-334.85214	244.34797	1096.97061	-413.20668	240.73023	1021.22813	-421.41880	201.74624	852.39863	-371.50568	162.50712	868.70024	-368.58647	434.32372	933.53304	-44.40207	435.26835	917.53892	-250.74363	452.96749	969.47994	-57.05220	452.76763	947.29562	-225.20296	
56	0.55000000	351.20433	518.97998	-38.25715	352.47435	412.69211	-61.26357	161.95425	134.96114	-128.10040	69.34742	95.48702	-177.23815	260.96481	44.18984	-90.34109	322.27199	67.26228	-156.24723	637.80882	534.86902	-351.56248	670.07050	454.99043	-378.20450	788.35605	135.97525	-338.32500	749.74843	59.01690	-278.79145	924.73064	112.45501	-382.80685	968.82881	168.53463	-328.37360	296.82165	315.62266	-51.90856	300.31509	446.75575	-19.08285	226.95325	355.97627	-25.75146	588.54578	423.01365	-359.48595	646.51317	315.32136	-359.82879	487.51301	825.74027	8.94596	472.09309	716.58366	-2.92259	409.37546	699.85425	16.82153	374.11632	837.11999	22.75846	360.86750	725.80487	1.47511	583.22810	832.95965	-335.74926	647.62267	707.73440	-330.45369	490.69903	781.18441	-366.36910	551.37016	659.37456	-366.44468	519.24822	1053.31836	-32.77189	340.39091	1050.90161	-109.37169	529.64466	1026.70181	-288.50788	340.35631	1036.15719	-219.08901	475.90706	1539.42587	-370.30070	581.48091	1533.16804	-208.61192	462.62041	1386.21135	-492.12780	575.38528	1435.90971	-323.17435	553.80931	1407.68939	-367.64908	580.95913	1420.62437	-76.91476	460.31276	1255.98238	13.55208	506.97742	1308.80856	68.56225	621.44920	1178.91688	97.58362	689.21738	1110.90660	85.90365	661.21930	1108.33657	123.49492	382.23120	1258.20152	-501.30605	273.52545	1111.81974	-334.64768	254.86846	1095.21309	-412.77997	250.16876	1019.54671	-420.34098	209.75906	851.50010	-369.07565	170.77306	868.08157	-365.77872	448.12999	931.44907	-45.12857	448.98334	915.13749	-251.44689	466.59412	967.39906	-57.82171	466.54136	944.78048	-226.14083	
57	0.56000000	363.97392	517.18783	-37.81503	362.04510	409.78174	-61.28921	164.64928	138.18793	-127.51170	71.29398	100.38778	-176.85868	261.50025	44.19456	-90.14662	323.19661	66.47215	-155.82705	653.03251	533.94920	-351.48928	684.28942	453.18193	-377.66141	795.29021	132.39034	-337.66178	753.79501	59.61199	-278.36165	930.39114	104.02089	-382.43295	976.66572	158.48512	-328.14114	304.98690	314.73910	-51.68981	312.09004	445.69399	-18.66472	236.15551	356.85953	-25.29569	601.90335	423.12699	-359.07397	657.33778	314.27169	-359.16754	500.68001	823.89511	8.39788	485.19093	714.69230	-3.01266	422.51786	698.18363	16.72786	387.32272	835.44606	22.01390	374.10647	724.16392	1.08071	598.25784	832.45908	-336.75803	663.35419	707.59873	-331.24225	505.79998	780.05290	-366.60468	567.06994	658.54003	-366.19832	533.23316	1051.34150	-33.79482	354.35485	1049.07609	-110.29928	543.68874	1024.56439	-289.70958	354.33409	1034.26096	-219.94274	490.33648	1535.89327	-374.50089	596.24219	1530.22376	-212.79675	476.27407	1381.65639	-495.21551	589.52325	1432.17133	-326.92656	568.21854	1403.66914	-371.24191	594.29577	1418.59685	-80.06845	471.93730	1255.74363	11.21222	518.72405	1308.80431	65.96698	632.30237	1178.46772	96.20470	699.77422	1110.17922	85.29112	671.69178	1107.89280	122.78604	394.92200	1254.31027	-502.92543	285.30091	1110.49135	-334.69181	265.94310	1093.48760	-412.61722	260.34418	1017.90506	-419.63660	218.68180	850.54547	-367.13756	180.00788	867.36205	-363.51690	462.06276	929.53705	-46.07785	462.81519	913.11525	-252.38877	480.49486	965.42536	-58.82446	480.46162	942.67040	-227.25703	
